<svg xmlns="http://www.w3.org/2000/svg" width="39" height="39" viewBox="0 0 39 39">
  <g id="設定の歯車アイコン_その2" data-name="設定の歯車アイコン　その2" transform="translate(-30.228 -23.432)">
    <path id="パス_2" data-name="パス 2" d="M38.263,23.408l-2.971-2.346a1.965,1.965,0,0,1-.736-1.55v-.019a1.965,1.965,0,0,1,.736-1.554l2.971-2.347a1.938,1.938,0,0,0,.589-2.262l-1.305-3.151A1.938,1.938,0,0,0,35.531,9l-3.76.442a1.965,1.965,0,0,1-1.619-.578l-.013-.014a1.966,1.966,0,0,1-.575-1.617L30,3.469a1.938,1.938,0,0,0-1.183-2.016L25.67.148a1.938,1.938,0,0,0-2.262.589L21.061,3.708a1.965,1.965,0,0,1-1.55.736h-.019a1.965,1.965,0,0,1-1.554-.736L15.592.737A1.938,1.938,0,0,0,13.33.148L10.179,1.453A1.938,1.938,0,0,0,9,3.469l.442,3.76A1.965,1.965,0,0,1,8.86,8.849l-.014.014a1.965,1.965,0,0,1-1.617.575L3.469,9a1.938,1.938,0,0,0-2.016,1.183L.148,13.33a1.938,1.938,0,0,0,.589,2.262l2.971,2.346a1.965,1.965,0,0,1,.736,1.55v.019a1.965,1.965,0,0,1-.736,1.554L.737,23.408A1.938,1.938,0,0,0,.148,25.67l1.305,3.151A1.938,1.938,0,0,0,3.469,30l3.76-.442a1.965,1.965,0,0,1,1.619.578l.014.014a1.966,1.966,0,0,1,.575,1.617L9,35.531a1.938,1.938,0,0,0,1.183,2.016l3.151,1.305a1.938,1.938,0,0,0,2.262-.589l2.346-2.971a1.966,1.966,0,0,1,1.55-.737h.019a1.965,1.965,0,0,1,1.554.736l2.347,2.971a1.938,1.938,0,0,0,2.262.589l3.151-1.305A1.938,1.938,0,0,0,30,35.531l-.442-3.76a1.965,1.965,0,0,1,.578-1.619l.014-.014a1.966,1.966,0,0,1,1.617-.575l3.76.442a1.938,1.938,0,0,0,2.016-1.183l1.305-3.151A1.938,1.938,0,0,0,38.263,23.408ZM21.427,25.114a5.924,5.924,0,1,1,3.206-7.74A5.924,5.924,0,0,1,21.427,25.114Z" transform="translate(30.228 23.432)" fill="#385ca8"/>
  </g>
</svg>
