<svg xmlns="http://www.w3.org/2000/svg" width="30" height="37" viewBox="0 0 30 37">
  <g id="履歴書の無料素材2" transform="translate(-49.671 -1.484)">
    <path id="パス_14" data-name="パス 14" d="M71.514,0h-13.2l-.67.672L48.37,9.98l-.671.673v20.14A6.2,6.2,0,0,0,53.885,37H71.514A6.2,6.2,0,0,0,77.7,30.793V6.206A6.2,6.2,0,0,0,71.514,0ZM64.425,8.128a2.571,2.571,0,1,1,5.142,0v.618a2.571,2.571,0,1,1-5.142,0Zm-14.651,3.6,9.274-9.306V8.472A3.252,3.252,0,0,1,55.8,11.729Zm16.159,18.4H54.32V28.517H65.933Zm4.978-4.849H54.32V23.666H70.911Zm0-4.851H54.32V18.816H70.911Zm-.772-5.045H63.853c-.831,0-1.209-1.214-.728-2.072a4.063,4.063,0,0,1,1.922-1.8,3.384,3.384,0,0,0,3.9,0,4.061,4.061,0,0,1,1.923,1.8C71.348,14.174,70.971,15.387,70.139,15.387Z" transform="translate(1.972 1.484)" fill="#385ca8"/>
  </g>
</svg>
