<svg xmlns="http://www.w3.org/2000/svg" width="41.218" height="41" viewBox="0 0 41.218 41">
  <g id="薬のフリーアイコン10" transform="translate(26 -7)">
    <path id="パス_1" data-name="パス 1" d="M37.981,22.394,18.865,3.5l.005.005A11.054,11.054,0,0,0,3.238,19.136l19.115,18.9-.005-.005A11.054,11.054,0,0,0,37.981,22.394ZM6.408,14.5A4.755,4.755,0,0,1,9.794,6.407Zm29.71,21.664a8.424,8.424,0,0,1-11.91,0l0,0h0L15.4,27.453c.026-.17.065-.369.121-.59a14.158,14.158,0,0,1,1.233-3.077,16.341,16.341,0,0,1,4.172-5.1,11.977,11.977,0,0,1,6.89-2.644l8.3,8.208,0,0a8.423,8.423,0,0,1,0,11.912Z" transform="translate(-26 6.735)" fill="#385ca8"/>
  </g>
</svg>
