<svg xmlns="http://www.w3.org/2000/svg" width="373" height="48.001" viewBox="0 0 373 48.001">
  <g id="グループ_19" data-name="グループ 19" transform="translate(-3094 177)">
    <path id="前面オブジェクトで型抜き_6" data-name="前面オブジェクトで型抜き 6" d="M90.032,48H0L22.968,24,0,0H90.032L113,24,90.032,48Z" transform="translate(3185 -177)" fill="#385ca8"/>
    <path id="前面オブジェクトで型抜き_7" data-name="前面オブジェクトで型抜き 7" d="M89.235,48H0L22.764,24,0,0H89.236L112,24,89.236,48Z" transform="translate(3282 -177)" fill="#7189bb"/>
    <path id="前面オブジェクトで型抜き_9" data-name="前面オブジェクトで型抜き 9" d="M88,49H0L22.917,25,0,1H88V49Z" transform="translate(3379 -178)" fill="#7189bb"/>
    <path id="合体_13" data-name="合体 13" d="M0,48V0H85.6L107,24,85.6,48Z" transform="translate(3094 -177)" fill="#7189bb"/>
    <text id="支払い" transform="translate(3419 -149)" fill="#fff" font-size="11" font-family="HiraginoSans-W3, Hiragino Sans"><tspan x="0" y="0">支払い</tspan></text>
    <text id="症状入力" transform="translate(3109 -149)" fill="#fff" font-size="11" font-family="HiraginoSans-W3, Hiragino Sans"><tspan x="0" y="0">症状入力</tspan></text>
    <text id="店舗選択" transform="translate(3220 -149)" fill="#fff" font-size="11" font-family="HiraginoSans-W3, Hiragino Sans"><tspan x="0" y="0">店舗選択</tspan></text>
    <text id="セット選択" transform="translate(3315 -149)" fill="#fff" font-size="11" font-family="HiraginoSans-W3, Hiragino Sans"><tspan x="0" y="0">セット選択</tspan></text>
  </g>
</svg>
